<?xml version="1.0" encoding="UTF-8"?>
<svg id="Layer_2" data-name="Layer 2" xmlns="http://www.w3.org/2000/svg" viewBox="0 0 64.4 56.36">
  <defs>
    <style>
      .cls-1 {
        fill: #fff;
        stroke-width: 0px;
      }
    </style>
  </defs>
  <g id="Layer_1-2" data-name="Layer 1">
    <path class="cls-1" d="m64.32,50.82c-.19-1.08-.76-2.06-1.66-2.78l-16.46-14.6c-1.79-1.44-3.94-2.1-6.05-2.01.98-1.72,1.42-3.79,1.08-5.92l-4.41-21.55c-.18-1.14-.75-2.12-1.58-2.83-.82-.7-1.89-1.12-3.05-1.12-2.3,0-4.27,1.68-4.62,3.95l-4.41,21.55c-.33,2.14.1,4.2,1.08,5.92-2.11-.09-4.26.57-6.05,2.01L1.74,48.04c-.89.72-1.46,1.71-1.66,2.78-.19,1.06-.03,2.2.55,3.2,1.15,1.99,3.58,2.86,5.73,2.02l20.87-6.95c2.3-.89,4.01-2.58,4.97-4.61.96,2.03,2.67,3.72,4.97,4.61l20.87,6.95c2.15.83,4.58-.03,5.74-2.02.57-1,.75-2.14.55-3.2Zm-32.12-30.45c3.69,0,6.68,2.99,6.68,6.68s-2.99,6.68-6.68,6.68-6.68-2.99-6.68-6.68,2.99-6.68,6.68-6.68Zm-4.81,25.91c-3.19,1.84-7.28.75-9.12-2.44-1.85-3.2-.75-7.28,2.44-9.12,3.2-1.85,7.28-.75,9.12,2.44,1.84,3.19.75,7.27-2.44,9.12Zm18.75-2.44c-1.84,3.19-5.93,4.29-9.12,2.44-3.2-1.85-4.29-5.93-2.44-9.12,1.84-3.2,5.92-4.29,9.12-2.44,3.19,1.84,4.29,5.92,2.44,9.12Z"/>
  </g>
</svg>